<?xml version="1.0" encoding="UTF-8"?>
<svg version="1.1" xmlns="http://www.w3.org/2000/svg" width="699" height="572">
<path d="M0 0 C230.67 0 461.34 0 699 0 C699 188.76 699 377.52 699 572 C468.33 572 237.66 572 0 572 C0 383.24 0 194.48 0 0 Z " fill="#135C91" transform="translate(0,0)"/>
<path d="M0 0 C1.65 0 3.3 0 5 0 C5 16.83 5 33.66 5 51 C15.23 51 25.46 51 36 51 C36 52.65 36 54.3 36 56 C25.77 56 15.54 56 5 56 C5 85.37 5 114.74 5 145 C13.25 145 21.5 145 30 145 C30 146.65 30 148.3 30 150 C21.75 150 13.5 150 5 150 C5 180.03 5 210.06 5 241 C13.58 241 22.16 241 31 241 C31 242.65 31 244.3 31 246 C22.42 246 13.84 246 5 246 C5 276.36 5 306.72 5 338 C20.84 338 36.68 338 53 338 C53 339.65 53 341.3 53 343 C37.16 343 21.32 343 5 343 C5 351.91 5 360.82 5 370 C3.35 370 1.7 370 0 370 C0 360.76 0 351.52 0 342 C-4.29 342 -8.58 342 -13 342 C-13 340.68 -13 339.36 -13 338 C-8.71 338 -4.42 338 0 338 C0 307.64 0 277.28 0 246 C-31.68 246 -63.36 246 -96 246 C-96 257.88 -96 269.76 -96 282 C-97.32 281.67 -98.64 281.34 -100 281 C-100 269.45 -100 257.9 -100 246 C-115.51 246 -131.02 246 -147 246 C-147.66 247.32 -148.32 248.64 -149 250 C-158.58168005 261.94161236 -170.50199257 271.77542931 -184 279 C-185.05574219 279.57363281 -186.11148437 280.14726562 -187.19921875 280.73828125 C-215.60817465 295.59492448 -245.50898559 297.33422254 -276.97533774 297.20278788 C-280.54001299 297.19009193 -284.10469345 297.18909544 -287.66938782 297.18673706 C-294.38719606 297.18057671 -301.10493744 297.16424152 -307.82271653 297.14403808 C-315.48442873 297.12150715 -323.14614451 297.1106429 -330.80788171 297.10064721 C-346.5386273 297.07986891 -362.2693023 297.04438795 -378 297 C-378 290.07 -378 283.14 -378 276 C-366.78 276 -355.56 276 -344 276 C-344 266.1 -344 256.2 -344 246 C-359.84 246 -375.68 246 -392 246 C-392 259.53 -392 273.06 -392 287 C-393.32 287 -394.64 287 -396 287 C-396.33 273.47 -396.66 259.94 -397 246 C-415.15 245.67 -433.3 245.34 -452 245 C-452 243.68 -452 242.36 -452 241 C-433.85 241 -415.7 241 -397 241 C-397 210.64 -397 180.28 -397 149 C-415.81 149 -434.62 149 -454 149 C-454 147.68 -454 146.36 -454 145 C-435.19 145 -416.38 145 -397 145 C-397 115.63 -397 86.26 -397 56 C-417.04395894 56.0395106 -417.04395894 56.0395106 -437.08789062 56.09008789 C-439.61067665 56.09300998 -442.13346315 56.09555784 -444.65625 56.09765625 C-446.60289551 56.1053302 -446.60289551 56.1053302 -448.58886719 56.11315918 C-454.82326878 56.11375818 -460.8389733 55.98047176 -467 55 C-466.67 53.68 -466.34 52.36 -466 51 C-443.23 51 -420.46 51 -397 51 C-397 38.46 -397 25.92 -397 13 C-395.35 13 -393.7 13 -392 13 C-392 25.54 -392 38.08 -392 51 C-376.16 51 -360.32 51 -344 51 C-344 42.75 -344 34.5 -344 26 C-354.89 26 -365.78 26 -377 26 C-377 19.4 -377 12.8 -377 6 C-359.56142134 5.93027119 -342.12289917 5.87687279 -324.68421268 5.84456348 C-316.58540637 5.82915667 -308.48668878 5.80818695 -300.38793945 5.77368164 C-293.32128774 5.74358825 -286.25470034 5.72438018 -279.18798631 5.71773452 C-275.45326192 5.71385566 -271.71872138 5.70487246 -267.98405647 5.68280983 C-238.274714 5.51405944 -238.274714 5.51405944 -224 9 C-223.1404068 9.19318817 -222.2808136 9.38637634 -221.39517212 9.5854187 C-219.44165091 10.03949004 -217.50075987 10.54716072 -215.5625 11.0625 C-210.31310124 12.44107738 -205.08117581 13.6311265 -199.72265625 14.5078125 C-198.86994141 14.75144531 -198.86994141 14.75144531 -198 15 C-197.67 15.66 -197.34 16.32 -197 17 C-195.42451174 17.78922207 -193.81261571 18.50629985 -192.1875 19.1875 C-181.75731607 23.80812552 -172.65172496 29.58019005 -164 37 C-162.77216797 38.04414063 -162.77216797 38.04414063 -161.51953125 39.109375 C-155.24456221 44.55518826 -155.24456221 44.55518826 -153.58251953 47.578125 C-149.4746446 51.43047132 -145.10674677 50.72694976 -139.671875 50.70703125 C-138.56773254 50.72215256 -137.46359009 50.73727386 -136.32598877 50.75285339 C-132.80045306 50.79583062 -129.2757719 50.80457854 -125.75 50.8125 C-123.35935212 50.83563635 -120.96872468 50.86099986 -118.578125 50.88867188 C-112.71828122 50.95581592 -106.86083783 50.97667539 -101 51 C-101 39.12 -101 27.24 -101 15 C-99.02 15 -97.04 15 -95 15 C-95 26.55 -95 38.1 -95 50 C-63.65 50 -32.3 50 0 50 C0 33.5 0 17 0 0 Z " fill="#FCFDFD" transform="translate(585,133)"/>
<path d="M0 0 C1.32 0 2.64 0 4 0 C4 23.1 4 46.2 4 70 C14.89 70 25.78 70 37 70 C37 71.32 37 72.64 37 74 C55.81 74 74.62 74 94 74 C94 104.36 94 134.72 94 166 C75.85 166 57.7 166 39 166 C39 167.32 39 168.64 39 170 C39.68682358 169.99777939 40.37364716 169.99555878 41.08128357 169.99327087 C48.20205162 169.97122105 55.32281004 169.95609467 62.44360352 169.94506836 C65.10441481 169.94002617 67.76522332 169.93319264 70.42602539 169.92456055 C74.24105516 169.91248991 78.05604844 169.90677071 81.87109375 169.90234375 C83.06899033 169.89718246 84.2668869 169.89202118 85.50108337 169.88670349 C87.15268211 169.88659019 87.15268211 169.88659019 88.83764648 169.88647461 C90.2999192 169.88314369 90.2999192 169.88314369 91.79173279 169.87974548 C94 170 94 170 95 171 C95.08871273 174.02977804 95.1151935 177.03667022 95.09765625 180.06640625 C95.09553383 181.42934059 95.09553383 181.42934059 95.09336853 182.81980896 C95.08775193 185.73407221 95.07519665 188.64825981 95.0625 191.5625 C95.05748714 193.53320202 95.05292386 195.50390524 95.04882812 197.47460938 C95.03777711 202.31643559 95.02050138 207.15820495 95 212 C96.32 212 97.64 212 99 212 C99 198.47 99 184.94 99 171 C114.84 171 130.68 171 147 171 C147 180.9 147 190.8 147 201 C135.78 201 124.56 201 113 201 C113 207.93 113 214.86 113 222 C129.40513099 221.93842156 145.81008557 221.86124421 162.21504211 221.76428509 C169.8349162 221.71962673 177.45474666 221.68014638 185.07470703 221.65356445 C191.72876453 221.63033812 198.38268037 221.59667534 205.03662491 221.55129844 C208.5485049 221.52769182 212.06024753 221.50875324 215.57220459 221.50238609 C256.10359404 221.41898177 295.18501976 216.13317713 327 189 C327.77085937 188.36320313 328.54171875 187.72640625 329.3359375 187.0703125 C333.94780715 183.27289743 333.94780715 183.27289743 337.33349609 178.43164062 C339.21095242 174.97594957 340.71869571 173.22727547 344 171 C351.79059794 169.24912837 360.085164 170.06614541 368 170.375 C370.2277652 170.42519677 372.4556385 170.47081782 374.68359375 170.51171875 C380.12723273 170.61305231 385.55582464 170.80860321 391 171 C391 182.55 391 194.1 391 206 C392.32 206.33 393.64 206.66 395 207 C395 225.48 395 243.96 395 263 C418.1 263 441.2 263 465 263 C465 264.32 465 265.64 465 267 C441.9 267 418.8 267 395 267 C395 278.55 395 290.1 395 302 C393.35 302 391.7 302 390 302 C390 290.78 390 279.56 390 268 C357.99 268 325.98 268 293 268 C293 279.88 293 291.76 293 304 C291.35 304 289.7 304 288 304 C288 292.12 288 280.24 288 268 C257.31 268 226.62 268 195 268 C195 280.21 195 292.42 195 305 C193.35 305 191.7 305 190 305 C190 292.79 190 280.58 190 268 C159.97 268 129.94 268 99 268 C99 279.88 99 291.76 99 304 C97.35 304 95.7 304 94 304 C94 292.12 94 280.24 94 268 C64.3 268 34.6 268 4 268 C4 279.22 4 290.44 4 302 C2.35 302 0.7 302 -1 302 C-1 290.78 -1 279.56 -1 268 C-9.58 268 -18.16 268 -27 268 C-27 266.35 -27 264.7 -27 263 C-18.42 263 -9.84 263 -1 263 C-1 232.64 -1 202.28 -1 171 C-12.88 171 -24.76 171 -37 171 C-37.33 169.35 -37.66 167.7 -38 166 C-25.79 166 -13.58 166 -1 166 C-1 135.64 -1 105.28 -1 74 C-14.2 74 -27.4 74 -41 74 C-41.33 72.68 -41.66 71.36 -42 70 C-28.47 70 -14.94 70 -1 70 C-1.01160156 65.03066406 -1.02320313 60.06132812 -1.03515625 54.94140625 C-1.04026314 51.80143099 -1.04507692 48.66146083 -1.04882812 45.52148438 C-1.05481606 40.53278547 -1.06191503 35.54410483 -1.07543945 30.55541992 C-1.08627008 26.53542314 -1.09227721 22.51544595 -1.09487724 18.49543571 C-1.09673118 16.95837025 -1.10035119 15.42130591 -1.10573006 13.88424873 C-1.11294284 11.73864513 -1.11399084 9.59312345 -1.11352539 7.44750977 C-1.115746 6.22395279 -1.11796661 5.00039581 -1.12025452 3.73976135 C-1 1 -1 1 0 0 Z " fill="#85AAC6" transform="translate(94,208)"/>
<path d="M0 0 C0 18.48 0 36.96 0 56 C32.01 56 64.02 56 97 56 C97 45.44 97 34.88 97 24 C98.65 24 100.3 24 102 24 C102 34.56 102 45.12 102 56 C133.68 56 165.36 56 198 56 C198 44.45 198 32.9 198 21 C199.65 21 201.3 21 203 21 C203 32.55 203 44.1 203 56 C217.19 56 231.38 56 246 56 C246 57.65 246 59.3 246 61 C231.81 61 217.62 61 203 61 C203 69.58 203 78.16 203 87 C201.35 87 199.7 87 198 87 C198 78.42 198 69.84 198 61 C166.32 61 134.64 61 102 61 C102 77.17 102 93.34 102 110 C100.35 110 98.7 110 97 110 C97 121.88 97 133.76 97 146 C90.02234688 146.20718105 83.05543281 146.38610104 76.07714844 146.49438477 C73.70633724 146.5395292 71.33577502 146.60086248 68.96582031 146.67895508 C65.54950513 146.78867301 62.13651089 146.83928471 58.71875 146.87890625 C57.66635132 146.92535782 56.61395264 146.97180939 55.52966309 147.01966858 C51.02337147 147.02273053 48.15541642 146.94629803 44.58914185 144.02548218 C42.57920194 141.76433184 40.7868983 139.43841172 39 137 C28.81052456 127.4307535 16.62912517 119.88886174 4 114 C2.66483644 113.33700641 1.33091573 112.67148011 0 112 C0 111.34 0 110.68 0 110 C-1.01964844 110.03738281 -2.03929687 110.07476562 -3.08984375 110.11328125 C-6.97000114 110.0008691 -9.87691031 109.34930926 -13.5625 108.1875 C-27.90298608 103.88077255 -41.47283697 101.86376404 -56.39257812 101.79467773 C-57.73364553 101.78508283 -59.07471002 101.77507185 -60.41577148 101.76467896 C-64.03499822 101.73779829 -67.65423777 101.71669832 -71.27350807 101.69667697 C-75.0638318 101.67471271 -78.85411679 101.64737541 -82.64440918 101.62062073 C-89.81231328 101.57083429 -96.98023903 101.52584373 -104.14818525 101.48259836 C-112.31269083 101.43310542 -120.47715751 101.37823225 -128.6416254 101.32291877 C-145.42771458 101.20931458 -162.21384004 101.10261997 -179 101 C-179 107.6 -179 114.2 -179 121 C-168.11 121 -157.22 121 -146 121 C-146 129.25 -146 137.5 -146 146 C-161.84 146 -177.68 146 -194 146 C-194 133.46 -194 120.92 -194 108 C-195.65 108 -197.3 108 -199 108 C-199 92.49 -199 76.98 -199 61 C-228.7 61 -258.4 61 -289 61 C-289 67.6 -289 74.2 -289 81 C-290.65 81 -292.3 81 -294 81 C-294 74.07 -294 67.14 -294 60 C-305.55 60 -317.1 60 -329 60 C-329.33 58.68 -329.66 57.36 -330 56 C-318.12 56 -306.24 56 -294 56 C-294 43.79 -294 31.58 -294 19 C-291.525 19.99 -291.525 19.99 -289 21 C-289 32.55 -289 44.1 -289 56 C-259.3 56 -229.6 56 -199 56 C-199 45.77 -199 35.54 -199 25 C-197.35 25 -195.7 25 -194 25 C-194 35.23 -194 45.46 -194 56 C-163.97 56 -133.94 56 -103 56 C-103 44.78 -103 33.56 -103 22 C-101.35 22 -99.7 22 -98 22 C-98 33.22 -98 44.44 -98 56 C-67.31 56 -36.62 56 -5 56 C-5.11878274 38.31846677 -5.11878274 38.31846677 -5.27026367 20.63720703 C-5.27902205 18.42741325 -5.28666751 16.21761465 -5.29296875 14.0078125 C-5.3159906 12.27422485 -5.3159906 12.27422485 -5.33947754 10.50561523 C-5.33984009 9.40950928 -5.34020264 8.31340332 -5.34057617 7.18408203 C-5.35056892 5.75178757 -5.35056892 5.75178757 -5.36076355 4.29055786 C-5.24171158 3.53467377 -5.12265961 2.77878967 -5 2 C-2 0 -2 0 0 0 Z " fill="#84A9C5" transform="translate(387,38)"/>
<path d="M0 0 C31.68 0 63.36 0 96 0 C96 30.03 96 60.06 96 91 C64.32 91 32.64 91 0 91 C0 60.97 0 30.94 0 0 Z " fill="#145C91" transform="translate(489,283)"/>
<path d="M0 0 C30.69 0 61.38 0 93 0 C93 30.03 93 60.06 93 91 C62.31 91 31.62 91 0 91 C0 60.97 0 30.94 0 0 Z " fill="#145C91" transform="translate(289,283)"/>
<path d="M0 0 C31.35 0 62.7 0 95 0 C95 29.04 95 58.08 95 88 C63.65 88 32.3 88 0 88 C0 58.96 0 29.92 0 0 Z " fill="#135C91" transform="translate(490,189)"/>
<path d="M0 0 C29.7 0 59.4 0 90 0 C90 30.36 90 60.72 90 92 C60.3 92 30.6 92 0 92 C0 61.64 0 31.28 0 0 Z " fill="#135C91" transform="translate(98,379)"/>
<path d="M0 0 C30.69 0 61.38 0 93 0 C93 29.37 93 58.74 93 89 C62.31 89 31.62 89 0 89 C0 59.63 0 30.26 0 0 Z " fill="#145C91" transform="translate(289,189)"/>
<path d="M0 0 C29.37 0 58.74 0 89 0 C89 30.03 89 60.06 89 91 C59.3 91 29.6 91 -1 91 C-1.020625 76.913125 -1.04125 62.82625 -1.0625 48.3125 C-1.071604 43.86821533 -1.08070801 39.42393066 -1.09008789 34.8449707 C-1.09460449 29.40856934 -1.09460449 29.40856934 -1.09544373 26.86174011 C-1.09697704 25.08695729 -1.1004894 23.31217549 -1.10557556 21.53739929 C-1.11290252 18.84563391 -1.11390573 16.15393207 -1.11352539 13.4621582 C-1.1171235 12.67446958 -1.12072161 11.88678095 -1.12442875 11.07522297 C-1.11703872 7.1643265 -0.77499514 3.87497572 0 0 Z " fill="#135C91" transform="translate(99,283)"/>
<path d="M0 0 C15.18 0 30.36 0 46 0 C46 30.36 46 60.72 46 92 C13.99 92 -18.02 92 -51 92 C-51 74.51 -51 57.02 -51 39 C-45.72 36.36 -40.44 33.72 -35 31 C-28.23130637 27.12131039 -22.30476234 22.7777121 -16.375 17.75 C-15.77743896 17.24960205 -15.17987793 16.7492041 -14.56420898 16.23364258 C-8.84112424 11.24242607 -5.00207196 6.11364351 0 0 Z " fill="#135C91" transform="translate(438,379)"/>
<path d="M0 0 C32.01 0 64.02 0 97 0 C97 28.05 97 56.1 97 85 C88.915 85.185625 80.83 85.37125 72.5 85.5625 C68.6937207 85.68540405 68.6937207 85.68540405 64.81054688 85.81079102 C62.77999138 85.83709723 60.74938813 85.86002635 58.71875 85.87890625 C57.68008789 85.92494995 56.64142578 85.97099365 55.57128906 86.01843262 C51.04906467 86.02328248 48.16815263 85.95672911 44.58914185 83.02548218 C42.57920194 80.76433184 40.7868983 78.43841172 39 76 C28.81052456 66.4307535 16.62912517 58.88886174 4 53 C2.68 52.34 1.36 51.68 0 51 C0 34.17 0 17.34 0 0 Z " fill="#135C91" transform="translate(387,99)"/>
<path d="M0 0 C15.84 0 31.68 0 48 0 C48 9.9 48 19.8 48 30 C36.78 30 25.56 30 14 30 C14 36.93 14 43.86 14 51 C39.41 51 64.82 51 91 51 C91 64.53 91 78.06 91 92 C60.97 92 30.94 92 0 92 C0 61.64 0 31.28 0 0 Z " fill="#145C91" transform="translate(193,379)"/>
<path d="M0 0 C30.03 0 60.06 0 91 0 C91 12.87 91 25.74 91 39 C65.92 39 40.84 39 15 39 C15 45.93 15 52.86 15 60 C25.89 60 36.78 60 48 60 C48 68.25 48 76.5 48 85 C32.16 85 16.32 85 0 85 C0 56.95 0 28.9 0 0 Z " fill="#155D92" transform="translate(193,99)"/>
<path d="M0 0 C15.84 0 31.68 0 48 0 C48 30.03 48 60.06 48 91 C32.16 91 16.32 91 0 91 C0 60.97 0 30.94 0 0 Z " fill="#155D92" transform="translate(193,283)"/>
<path d="M0 0 C15.84 0 31.68 0 48 0 C48 29.37 48 58.74 48 89 C32.16 89 16.32 89 0 89 C0 59.63 0 30.26 0 0 Z " fill="#155D92" transform="translate(193,189)"/>
<path d="M0 0 C0 16.5 0 33 0 50 C-30.69 50 -61.38 50 -93 50 C-93 36.47 -93 22.94 -93 9 C-88.3284375 8.94392578 -88.3284375 8.94392578 -83.5625 8.88671875 C-45.04785565 8.64563197 -45.04785565 8.64563197 -7.484375 0.98828125 C-4 0 -4 0 0 0 Z " fill="#145D91" transform="translate(382,421)"/>
<path d="M0 0 C30.69 0 61.38 0 93 0 C93 15.84 93 31.68 93 48 C84.06004804 46.882506 84.06004804 46.882506 80.25 45.87890625 C53.83622643 39.21415014 27.09956459 39.56457426 0 39 C0 26.13 0 13.26 0 0 Z " fill="#135C91" transform="translate(289,99)"/>
<path d="M0 0 C1.65 0 3.3 0 5 0 C5 16.83 5 33.66 5 51 C15.23 51 25.46 51 36 51 C36 52.65 36 54.3 36 56 C25.77 56 15.54 56 5 56 C5 85.37 5 114.74 5 145 C13.25 145 21.5 145 30 145 C30 146.65 30 148.3 30 150 C21.75 150 13.5 150 5 150 C5 180.03 5 210.06 5 241 C13.58 241 22.16 241 31 241 C31 242.65 31 244.3 31 246 C22.42 246 13.84 246 5 246 C5 276.36 5 306.72 5 338 C20.84 338 36.68 338 53 338 C53 339.65 53 341.3 53 343 C37.16 343 21.32 343 5 343 C5 351.91 5 360.82 5 370 C3.35 370 1.7 370 0 370 C0 360.76 0 351.52 0 342 C-4.29 342 -8.58 342 -13 342 C-13 340.68 -13 339.36 -13 338 C-8.71 338 -4.42 338 0 338 C0 307.64 0 277.28 0 246 C-31.68 246 -63.36 246 -96 246 C-96 245.67 -96 245.34 -96 245 C-77.52 245 -59.04 245 -40 245 C-40.33 243.68 -40.66 242.36 -41 241 C-27.47 241 -13.94 241 0 241 C0 210.97 0 180.94 0 150 C-15.84 150 -31.68 150 -48 150 C-48 148.35 -48 146.7 -48 145 C-63.84 145 -79.68 145 -96 145 C-96 115.3 -96 85.6 -96 55 C-77.52 55 -59.04 55 -40 55 C-40 53.68 -40 52.36 -40 51 C-58.48 51 -76.96 51 -96 51 C-96 39.12 -96 27.24 -96 15 C-95.67 15 -95.34 15 -95 15 C-95 26.55 -95 38.1 -95 50 C-63.65 50 -32.3 50 0 50 C0 33.5 0 17 0 0 Z M-95 56 C-95 85.04 -95 114.08 -95 144 C-63.65 144 -32.3 144 0 144 C0 114.96 0 85.92 0 56 C-31.35 56 -62.7 56 -95 56 Z " fill="#7FA6C3" transform="translate(585,133)"/>
<path d="M0 0 C14.85 0 29.7 0 45 0 C45 29.37 45 58.74 45 89 C39.06 89 33.12 89 27 89 C26.82984375 87.10378906 26.6596875 85.20757812 26.484375 83.25390625 C24.7888291 65.17960143 22.37169018 48.11797361 16 31 C15.65453125 30.05125 15.3090625 29.1025 14.953125 28.125 C12.05689038 20.666204 8.19598559 14.02127878 3.98828125 7.25 C2 4 2 4 0 0 Z " fill="#145C91" transform="translate(439,189)"/>
<path d="M0 0 C5.94 0 11.88 0 18 0 C18 30.03 18 60.06 18 91 C4.14 91 -9.72 91 -24 91 C-21.36 86.38 -18.72 81.76 -16 77 C-14.65526033 74.08189034 -13.41975875 71.30404751 -12.3125 68.3125 C-12.03051758 67.56540771 -11.74853516 66.81831543 -11.45800781 66.04858398 C-3.57949424 44.57046824 -0.65682752 22.76247092 0 0 Z " fill="#155D92" transform="translate(466,283)"/>
<path d="M0 0 C30.69 0 61.38 0 93 0 C93 5 93 5 90.71875 7.39453125 C89.66185772 8.22142187 88.58742569 9.02619551 87.5 9.8125 C86.91976074 10.24264404 86.33952148 10.67278809 85.74169922 11.1159668 C65.32923677 25.7507561 42.98710084 30.36850691 18.3125 30.125 C16.53190608 30.11494839 14.75130667 30.1058264 12.97070312 30.09765625 C8.6468856 30.07753611 4.32384618 30.03835842 0 30 C0 20.1 0 10.2 0 0 Z " fill="#145D91" transform="translate(289,379)"/>
<path d="M0 0 C9.24 0 18.48 0 28 0 C28.29247214 22.66659086 28.29247214 22.66659086 26 34 C25.79375 35.17433594 25.5875 36.34867187 25.375 37.55859375 C22.21163325 54.83129514 16.7278149 78.80135942 3 91 C2.01 91 1.02 91 0 91 C0 60.97 0 30.94 0 0 Z " fill="#175E92" transform="translate(387,283)"/>
<path d="M0 0 C32.57325963 -0.33069299 65.74161499 0.38890096 91 24 C91 24.33 91 24.66 91 25 C60.97 25 30.94 25 0 25 C0 16.75 0 8.5 0 0 Z " fill="#196094" transform="translate(289,159)"/>
<path d="M0 0 C16.21948706 16.21948706 23.74792677 40.10521986 26.875 62.375 C26.99520508 63.22908447 27.11541016 64.08316895 27.23925781 64.96313477 C28.15980742 72.43511912 28 79.32109553 28 87 C18.76 87 9.52 87 0 87 C0 58.29 0 29.58 0 0 Z " fill="#196093" transform="translate(387,191)"/>
<path d="M0 0 C0.33 0 0.66 0 1 0 C1 27.72 1 55.44 1 84 C30.37 84 59.74 84 90 84 C90 84.33 90 84.66 90 85 C67.23 85 44.46 85 21 85 C21 85.99 21 86.98 21 88 C23.31 88.33 25.62 88.66 28 89 C28 89.33 28 89.66 28 90 C19.09 90 10.18 90 1 90 C1 119.04 1 148.08 1 178 C30.37 178 59.74 178 90 178 C90 178.33 90 178.66 90 179 C60.3 179 30.6 179 0 179 C0 155.9 0 132.8 0 109 C-2.475 109.495 -2.475 109.495 -5 110 C-5 103.4 -5 96.8 -5 90 C-23.81 90 -42.62 90 -62 90 C-62 88.35 -62 86.7 -62 85 C-43.19 85 -24.38 85 -5 85 C-5 63.55 -5 42.1 -5 20 C-3.35 20 -1.7 20 0 20 C0 13.4 0 6.8 0 0 Z " fill="#3573A0" transform="translate(98,99)"/>
<path d="M0 0 C0.33 0 0.66 0 1 0 C1 18.81 1 37.62 1 57 C2.32 57 3.64 57 5 57 C5 68.55 5 80.1 5 92 C20.18 92 35.36 92 51 92 C51 93.32 51 94.64 51 96 C65.52 96 80.04 96 95 96 C95 96.33 95 96.66 95 97 C65.3 97 35.6 97 5 97 C5 108.22 5 119.44 5 131 C3.35 131 1.7 131 0 131 C0 119.78 0 108.56 0 97 C-8.58 97 -17.16 97 -26 97 C-26 95.35 -26 93.7 -26 92 C-17.42 92 -8.84 92 0 92 C0 61.64 0 31.28 0 0 Z " fill="#81A7C4" transform="translate(93,379)"/>
<path d="M0 0 C1.65 0 3.3 0 5 0 C5 11.55 5 23.1 5 35 C19.19 35 33.38 35 48 35 C48 36.65 48 38.3 48 40 C33.81 40 19.62 40 5 40 C5 48.58 5 57.16 5 66 C3.35 66 1.7 66 0 66 C0 57.42 0 48.84 0 40 C-31.68 40 -63.36 40 -96 40 C-96 39.67 -96 39.34 -96 39 C-74.55 39 -53.1 39 -31 39 C-31 37.68 -31 36.36 -31 35 C-20.77 35 -10.54 35 0 35 C0 23.45 0 11.9 0 0 Z " fill="#83A9C5" transform="translate(585,59)"/>
<path d="M0 0 C0.33 0 0.66 0 1 0 C1.17481047 28.01270597 0.67033045 55.99587574 0 84 C-1.65 83.67 -3.3 83.34 -5 83 C-5 62.21 -5 41.42 -5 20 C-3.35 20 -1.7 20 0 20 C0 13.4 0 6.8 0 0 Z " fill="#4D84AC" transform="translate(98,99)"/>
<path d="M0 0 C0.33 0 0.66 0 1 0 C1 30.03 1 60.06 1 91 C32.35 91 63.7 91 96 91 C96 91.33 96 91.66 96 92 C91.71 92 87.42 92 83 92 C83 93.32 83 94.64 83 96 C87.29 96 91.58 96 96 96 C96 96.33 96 96.66 96 97 C64.32 97 32.64 97 0 97 C0 96.67 0 96.34 0 96 C23.1 96 46.2 96 70 96 C70 94.68 70 93.36 70 92 C46.9 92 23.8 92 0 92 C0 61.64 0 31.28 0 0 Z " fill="#3775A2" transform="translate(489,379)"/>
<path d="M0 0 C0.33 0 0.66 0 1 0 C1 27.72 1 55.44 1 84 C21.46 84 41.92 84 63 84 C63 86 63 86 61.40722656 88.10058594 C58.25649062 90.58666359 56.46340865 90.46297107 52.484375 90.390625 C51.23398437 90.37773437 49.98359375 90.36484375 48.6953125 90.3515625 C47.39335938 90.31804687 46.09140625 90.28453125 44.75 90.25 C43.43257812 90.23195313 42.11515625 90.21390625 40.7578125 90.1953125 C37.50447692 90.14816271 34.25260375 90.08236044 31 90 C31 88.35 31 86.7 31 85 C20.77 85 10.54 85 0 85 C0 68.17 0 51.34 0 34 C-1.65 34 -3.3 34 -5 34 C-5 31.36 -5 28.72 -5 26 C-3.35 26 -1.7 26 0 26 C0 17.42 0 8.84 0 0 Z " fill="#2F709E" transform="translate(590,99)"/>
<path d="M0 0 C0.33 0 0.66 0 1 0 C1 29.7 1 59.4 1 90 C20.47 90 39.94 90 60 90 C60 91.98 60 93.96 60 96 C48.78 96 37.56 96 26 96 C26 94.35 26 92.7 26 91 C17.42 91 8.84 91 0 91 C0 60.97 0 30.94 0 0 Z " fill="#31719F" transform="translate(590,283)"/>
<path d="M0 0 C0.33 0 0.66 0 1 0 C1 29.04 1 58.08 1 88 C18.02333542 87.88122097 18.02333542 87.88122097 35.04638672 87.72973633 C37.17414908 87.72097783 39.30191644 87.7133324 41.4296875 87.70703125 C43.09849976 87.6840094 43.09849976 87.6840094 44.80102539 87.66052246 C46.38427612 87.65997864 46.38427612 87.65997864 47.99951172 87.65942383 C49.37851151 87.64943108 49.37851151 87.64943108 50.78536987 87.63923645 C51.51619781 87.75828842 52.24702576 87.87734039 53 88 C55 91 55 91 55 94 C45.1 94 35.2 94 25 94 C25 92.35 25 90.7 25 89 C16.75 89 8.5 89 0 89 C0 59.63 0 30.26 0 0 Z " fill="#31709E" transform="translate(590,189)"/>
<path d="M0 0 C0 21.12 0 42.24 0 64 C29.37 64 58.74 64 89 64 C89 64.33 89 64.66 89 65 C59.3 65 29.6 65 -1 65 C-1.495 47.675 -1.495 47.675 -2 30 C-3.32 29.34 -4.64 28.68 -6 28 C-6.11591764 23.89606988 -6.18715601 19.79255894 -6.25 15.6875 C-6.28351563 14.52025391 -6.31703125 13.35300781 -6.3515625 12.15039062 C-6.36445312 11.03212891 -6.37734375 9.91386719 -6.390625 8.76171875 C-6.41157227 7.73006592 -6.43251953 6.69841309 -6.45410156 5.63549805 C-6 3 -6 3 -4.10058594 1.13989258 C-2 0 -2 0 0 0 Z " fill="#447EA8" transform="translate(99,29)"/>
<path d="M0 0 C0 17.49 0 34.98 0 53 C19.47 53 38.94 53 59 53 C58.34 54.98 57.68 56.96 57 59 C52.05 59 47.1 59 42 59 C42 57.35 42 55.7 42 54 C27.81 54 13.62 54 -1 54 C-1 42.45 -1 30.9 -1 19 C-2.65 19 -4.3 19 -6 19 C-6 13.06 -6 7.12 -6 1 C-4 0 -4 0 0 0 Z " fill="#30709E" transform="translate(591,40)"/>
<path d="M0 0 C0.33 0 0.66 0 1 0 C1 3.3 1 6.6 1 10 C2.32 10 3.64 10 5 10 C5 26.83 5 43.66 5 61 C3.35 61 1.7 61 0 61 C0 40.87 0 20.74 0 0 Z " fill="#5E90B4" transform="translate(585,379)"/>
<path d="M0 0 C20.13 0 40.26 0 61 0 C61 0.33 61 0.66 61 1 C52.42 1 43.84 1 35 1 C35 2.65 35 4.3 35 6 C30.49770526 6.09889302 25.99604273 6.17147709 21.49291992 6.21972656 C19.96123238 6.2398398 18.42962161 6.2671345 16.89819336 6.30175781 C14.69625927 6.35029315 12.49534018 6.37296996 10.29296875 6.390625 C9.60849167 6.41127014 8.92401459 6.43191528 8.21879578 6.45318604 C4.97977987 6.45471403 3.41702526 6.40500019 1.04418945 4.10058594 C0 2 0 2 0 0 Z " fill="#4D84AC" transform="translate(32,470)"/>
<path d="M0 0 C20.13 0 40.26 0 61 0 C61 0.33 61 0.66 61 1 C43.675 1.495 43.675 1.495 26 2 C26 2.99 26 3.98 26 5 C37.55 5 49.1 5 61 5 C61 5.33 61 5.66 61 6 C53.19424805 6.02312792 45.38850405 6.04091738 37.58272648 6.05181217 C33.9585404 6.05704002 30.3343777 6.06413587 26.71020508 6.07543945 C23.21540025 6.08627184 19.72061796 6.09227758 16.22579765 6.09487724 C14.23760611 6.09763551 12.24942369 6.10544688 10.26124573 6.11329651 C9.06007614 6.11337204 7.85890656 6.11344757 6.62133789 6.11352539 C5.02582848 6.11685631 5.02582848 6.11685631 3.39808655 6.12025452 C1 6 1 6 0 5 C0 3.35 0 1.7 0 0 Z " fill="#2D6E9D" transform="translate(32,93)"/>
<path d="M0 0 C1.65 0 3.3 0 5 0 C6.31908501 7.9966676 6.12649956 16.01495462 6.09765625 24.09375 C6.0961834 25.47558553 6.09516481 26.85742161 6.09460449 28.23925781 C6.08939133 33.32618046 6.0754301 38.41309111 6.0625 43.5 C6.041875 54.885 6.02125 66.27 6 78 C35.37 78 64.74 78 95 78 C95 78.33 95 78.66 95 79 C65.3 79 35.6 79 5 79 C5 55.9 5 32.8 5 9 C3.35 9.33 1.7 9.66 0 10 C0 6.7 0 3.4 0 0 Z " fill="#5186AD" transform="translate(93,199)"/>
<path d="M0 0 C20.79 0 41.58 0 63 0 C63 0.33 63 0.66 63 1 C51.12 1.33 39.24 1.66 27 2 C27 3.32 27 4.64 27 6 C22.68751391 6.02886537 18.37505238 6.04675255 14.0625 6.0625 C12.83080078 6.07087891 11.59910156 6.07925781 10.33007812 6.08789062 C9.16025391 6.09111328 7.99042969 6.09433594 6.78515625 6.09765625 C5.15912476 6.10551147 5.15912476 6.10551147 3.50024414 6.11352539 C1 6 1 6 0 5 C0 3.35 0 1.7 0 0 Z " fill="#2F6F9E" transform="translate(30,373)"/>
<path d="M0 0 C8.07861415 -0.09579384 15.98340366 -0.12513633 24 1 C24.33 2.32 24.66 3.64 25 5 C38.2 5 51.4 5 65 5 C65 5.33 65 5.66 65 6 C56.82039446 6.06943077 48.64091149 6.12277566 40.46108437 6.15543652 C36.66307817 6.17111006 32.86527319 6.19237859 29.06738281 6.22631836 C25.40397533 6.25885241 21.74076169 6.27684029 18.07722092 6.28463173 C16.6777173 6.29018603 15.27822461 6.30103199 13.87880325 6.31719017 C11.92272489 6.33888273 9.96645252 6.3402247 8.01025391 6.34057617 C6.33813339 6.35056892 6.33813339 6.35056892 4.63223267 6.36076355 C3.76359589 6.24171158 2.89495911 6.12265961 2 6 C0 3 0 3 0 0 Z " fill="#30709E" transform="translate(28,277)"/>
<path d="M0 0 C5.61 0 11.22 0 17 0 C17 1.32 17 2.64 17 4 C31.52 4 46.04 4 61 4 C61 4.33 61 4.66 61 5 C31.3 5 1.6 5 -29 5 C-29 4.67 -29 4.34 -29 4 C-19.43 4 -9.86 4 0 4 C0 2.68 0 1.36 0 0 Z " fill="#578BB0" transform="translate(127,471)"/>
<path d="M0 0 C4.29 0 8.58 0 13 0 C13 1.32 13 2.64 13 4 C17.29 4 21.58 4 26 4 C26 4.33 26 4.66 26 5 C-5.68 5 -37.36 5 -70 5 C-70 4.67 -70 4.34 -70 4 C-46.9 4 -23.8 4 0 4 C0 2.68 0 1.36 0 0 Z " fill="#6494B6" transform="translate(559,471)"/>
<path d="M0 0 C1.65 0 3.3 0 5 0 C5 8.58 5 17.16 5 26 C4.34 26 3.68 26 3 26 C3 26.66 3 27.32 3 28 C2.01 28 1.02 28 0 28 C0 18.76 0 9.52 0 0 Z " fill="#4981AA" transform="translate(585,503)"/>
<path d="M0 0 C10.89 0 21.78 0 33 0 C33 1.32 33 2.64 33 4 C22.11 4 11.22 4 0 4 C0 2.68 0 1.36 0 0 Z " fill="#4E85AD" transform="translate(616,374)"/>
<path d="M0 0 C2.97 0 5.94 0 9 0 C9 1.32 9 2.64 9 4 C16.26 4 23.52 4 31 4 C31 4.33 31 4.66 31 5 C-0.68 5 -32.36 5 -65 5 C-65 4.67 -65 4.34 -65 4 C-43.55 4 -22.1 4 0 4 C0 2.68 0 1.36 0 0 Z " fill="#6594B6" transform="translate(554,94)"/>
<path d="M0 0 C1.32 0 2.64 0 4 0 C4 10.23 4 20.46 4 31 C2.68 31 1.36 31 0 31 C0 20.77 0 10.54 0 0 Z " fill="#88ACC7" transform="translate(586,396)"/>
<path d="M0 0 C0.33 0 0.66 0 1 0 C1 11.55 1 23.1 1 35 C2.32 35.33 3.64 35.66 5 36 C5 42.27 5 48.54 5 55 C3.68 55 2.36 55 1 55 C-0.3855326 36.69117634 -0.09694789 18.34701605 0 0 Z " fill="#9CBAD0" transform="translate(484,379)"/>
<path d="M0 0 C0.33 0 0.66 0 1 0 C1 16.17 1 32.34 1 49 C-4 48 -4 48 -5 47 C-5.07226502 45.14712498 -5.0838122 43.29166122 -5.0625 41.4375 C-5.05347656 40.42558594 -5.04445313 39.41367187 -5.03515625 38.37109375 C-5.02355469 37.58863281 -5.01195312 36.80617188 -5 36 C-3.35 36 -1.7 36 0 36 C0 24.12 0 12.24 0 0 Z " fill="#2C6D9C" transform="translate(387,476)"/>
<path d="M0 0 C0 7.59 0 15.18 0 23 C-1.65 23 -3.3 23 -5 23 C-5.0868329 19.541824 -5.14033282 16.08392656 -5.1875 12.625 C-5.21263672 11.64015625 -5.23777344 10.6553125 -5.26367188 9.640625 C-5.27333984 8.69960938 -5.28300781 7.75859375 -5.29296875 6.7890625 C-5.3086792 5.91975098 -5.32438965 5.05043945 -5.34057617 4.15478516 C-5.22818604 3.44370605 -5.1157959 2.73262695 -5 2 C-2 0 -2 0 0 0 Z " fill="#4C84AC" transform="translate(387,38)"/>
<path d="M0 0 C1.65 0 3.3 0 5 0 C5 7.26 5 14.52 5 22 C3.35 22 1.7 22 0 22 C0 14.74 0 7.48 0 0 Z " fill="#4A82AB" transform="translate(93,510)"/>
<path d="M0 0 C1.32 0 2.64 0 4 0 C4 7.26 4 14.52 4 22 C2.35 22 0.7 22 -1 22 C-1.02887814 18.52085059 -1.04675687 15.04173169 -1.0625 11.5625 C-1.07087891 10.56927734 -1.07925781 9.57605469 -1.08789062 8.55273438 C-1.09111328 7.60849609 -1.09433594 6.66425781 -1.09765625 5.69140625 C-1.10289307 4.81685791 -1.10812988 3.94230957 -1.11352539 3.04125977 C-1 1 -1 1 0 0 Z " fill="#4A82AB" transform="translate(285,38)"/>
<path d="M0 0 C20.13 0 40.26 0 61 0 C61 0.33 61 0.66 61 1 C52.42 1 43.84 1 35 1 C35 2.65 35 4.3 35 6 C24.44 6 13.88 6 3 6 C3 5.67 3 5.34 3 5 C12.57 5 22.14 5 32 5 C32 3.68 32 2.36 32 1 C16.16 1.495 16.16 1.495 0 2 C0 1.34 0 0.68 0 0 Z " fill="#2C6D9D" transform="translate(32,470)"/>
<path d="M0 0 C0.33 0 0.66 0 1 0 C1 13.53 1 27.06 1 41 C2.32 41 3.64 41 5 41 C5 45.29 5 49.58 5 54 C3.35 54 1.7 54 0 54 C0 36.18 0 18.36 0 0 Z " fill="#A2BED3" transform="translate(188,379)"/>
<path d="M0 0 C3.63 0 7.26 0 11 0 C10.34 1.32 9.68 2.64 9 4 C28.8 4 48.6 4 69 4 C69 4.33 69 4.66 69 5 C61.05437337 5.02324732 53.10876114 5.04097795 45.16310883 5.05181217 C41.47298474 5.05701401 37.78288406 5.06406224 34.09277344 5.07543945 C30.5266141 5.08636475 26.96047716 5.09229713 23.39430237 5.09487724 C21.3826117 5.09760358 19.37092995 5.10540012 17.35925293 5.11329651 C11.14237777 5.11367498 5.1436951 4.97771359 -1 4 C-0.67 2.68 -0.34 1.36 0 0 Z " fill="#B5CCDC" transform="translate(119,184)"/>
<path d="M0 0 C8.25 0 16.5 0 25 0 C25 1.32 25 2.64 25 4 C16.75 4 8.5 4 0 4 C0 2.68 0 1.36 0 0 Z " fill="#4D84AC" transform="translate(618,278)"/>
<path d="M0 0 C8.58 0 17.16 0 26 0 C25.34 1.32 24.68 2.64 24 4 C16.08 4 8.16 4 0 4 C0 2.68 0 1.36 0 0 Z " fill="#4D84AC" transform="translate(626,184)"/>
<path d="M0 0 C0.66 0 1.32 0 2 0 C2 0.66 2 1.32 2 2 C2.99 2 3.98 2 5 2 C5 8.27 5 14.54 5 21 C3.35 21 1.7 21 0 21 C0 14.07 0 7.14 0 0 Z " fill="#4B83AB" transform="translate(188,42)"/>
<path d="M0 0 C1.65 0 3.3 0 5 0 C5 6.27 5 12.54 5 19 C3.35 19 1.7 19 0 19 C0 12.73 0 6.46 0 0 Z " fill="#4D84AC" transform="translate(284,513)"/>
<path d="M0 0 C1.65 0 3.3 0 5 0 C5 6.27 5 12.54 5 19 C3.35 19 1.7 19 0 19 C0 12.73 0 6.46 0 0 Z " fill="#4780A9" transform="translate(188,512)"/>
<path d="M0 0 C1.65 0 3.3 0 5 0 C5 5.94 5 11.88 5 18 C3.35 18.33 1.7 18.66 0 19 C0 12.73 0 6.46 0 0 Z " fill="#4D84AC" transform="translate(484,510)"/>
<path d="M0 0 C3.96 0 7.92 0 12 0 C12.33 1.32 12.66 2.64 13 4 C24.55 4 36.1 4 48 4 C48 4.33 48 4.66 48 5 C42.28914706 5.02481154 36.57832586 5.04291275 30.86743164 5.05493164 C28.92667087 5.05994485 26.98591384 5.06675712 25.04516602 5.07543945 C22.24754916 5.08763732 19.44998245 5.09325855 16.65234375 5.09765625 C15.36129982 5.10539818 15.36129982 5.10539818 14.04417419 5.11329651 C9.25270335 5.11373768 4.72499236 4.80561817 0 4 C0 2.68 0 1.36 0 0 Z " fill="#578BB0" transform="translate(45,94)"/>
<path d="M0 0 C1.65 0 3.3 0 5 0 C5 5.94 5 11.88 5 18 C3.35 18 1.7 18 0 18 C0 12.06 0 6.12 0 0 Z " fill="#4D84AC" transform="translate(484,44)"/>
<path d="M0 0 C5.61 0 11.22 0 17 0 C17 1.65 17 3.3 17 5 C11.39 5 5.78 5 0 5 C0 3.35 0 1.7 0 0 Z " fill="#4A82AB" transform="translate(638,471)"/>
<path d="M0 0 C6.93 0 13.86 0 21 0 C21 1.32 21 2.64 21 4 C14.07 4 7.14 4 0 4 C0 2.68 0 1.36 0 0 Z " fill="#4D84AC" transform="translate(31,374)"/>
<path d="M0 0 C0.33 0 0.66 0 1 0 C1 6.27 1 12.54 1 19 C2.32 19 3.64 19 5 19 C4.67 20.65 4.34 22.3 4 24 C3.01 24 2.02 24 1 24 C1 34.56 1 45.12 1 56 C0.67 56 0.34 56 0 56 C0 37.52 0 19.04 0 0 Z " fill="#6393B6" transform="translate(484,415)"/>
<path d="M0 0 C3.96 0 7.92 0 12 0 C12 1.32 12 2.64 12 4 C16.29 4 20.58 4 25 4 C25 4.33 25 4.66 25 5 C16.75 5 8.5 5 0 5 C0 3.35 0 1.7 0 0 Z " fill="#5086AD" transform="translate(560,471)"/>
<path d="M0 0 C5.61 0 11.22 0 17 0 C17 0.99 17 1.98 17 3 C19.31 3.33 21.62 3.66 24 4 C24 4.33 24 4.66 24 5 C7.1070615 5.738041 7.1070615 5.738041 0 1 C0 0.67 0 0.34 0 0 Z " fill="#4D84AC" transform="translate(102,184)"/>
<path d="M0 0 C2.475 0.495 2.475 0.495 5 1 C5 1.99 5 2.98 5 4 C18.2 4 31.4 4 45 4 C45 4.33 45 4.66 45 5 C30.15 5 15.3 5 0 5 C0 3.35 0 1.7 0 0 Z " fill="#6293B5" transform="translate(48,278)"/>
<path d="M0 0 C0 4.29 0 8.58 0 13 C-1.65 13 -3.3 13 -5 13 C-5 9.04 -5 5.08 -5 1 C-3 0 -3 0 0 0 Z " fill="#4C83AB" transform="translate(590,427)"/>
<path d="M0 0 C2.64 0 5.28 0 8 0 C8 1.32 8 2.64 8 4 C15.26 4 22.52 4 30 4 C30 4.33 30 4.66 30 5 C20.1 5 10.2 5 0 5 C0 3.35 0 1.7 0 0 Z " fill="#5388AE" transform="translate(555,94)"/>
<path d="M0 0 C4.29 0 8.58 0 13 0 C13 1.32 13 2.64 13 4 C8.71 4 4.42 4 0 4 C0 2.68 0 1.36 0 0 Z " fill="#4D84AC" transform="translate(635,94)"/>
<path d="M0 0 C1.32 0 2.64 0 4 0 C4 4.29 4 8.58 4 13 C2.68 13 1.36 13 0 13 C0 8.71 0 4.42 0 0 Z " fill="#4D84AC" transform="translate(586,41)"/>
<path d="M0 0 C4.29 0 8.58 0 13 0 C12.67 1.32 12.34 2.64 12 4 C8.04 4 4.08 4 0 4 C0 2.68 0 1.36 0 0 Z " fill="#4C84AC" transform="translate(29,278)"/>
<path d="M0 0 C1.65 0 3.3 0 5 0 C5 1.98 5 3.96 5 6 C3.68 6 2.36 6 1 6 C1 9.96 1 13.92 1 18 C1.66 18.33 2.32 18.66 3 19 C2.01 19 1.02 19 0 19 C0 12.73 0 6.46 0 0 Z " fill="#3573A0" transform="translate(484,510)"/>
<path d="M0 0 C2.475 0.495 2.475 0.495 5 1 C5 2.32 5 3.64 5 5 C-3.58 5 -12.16 5 -21 5 C-21 4.67 -21 4.34 -21 4 C-14.07 4 -7.14 4 0 4 C0 2.68 0 1.36 0 0 Z " fill="#3875A2" transform="translate(52,374)"/>
<path d="M0 0 C0.99 0 1.98 0 3 0 C3 1.65 3 3.3 3 5 C-7.56 5 -18.12 5 -29 5 C-29 4.67 -29 4.34 -29 4 C-19.43 4 -9.86 4 0 4 C0 2.68 0 1.36 0 0 Z " fill="#3875A2" transform="translate(64,471)"/>
<path d="M0 0 C3.63 0 7.26 0 11 0 C9.5 2.5625 9.5 2.5625 7 5 C4.12271746 5.15374792 1.85446858 4.61846819 -1 4 C-0.67 2.68 -0.34 1.36 0 0 Z " fill="#88ACC7" transform="translate(119,184)"/>
<path d="M0 0 C1.65 0 3.3 0 5 0 C5 2.64 5 5.28 5 8 C3.35 8 1.7 8 0 8 C0 5.36 0 2.72 0 0 Z " fill="#4B83AB" transform="translate(585,125)"/>
<path d="M0 0 C1.98 0 3.96 0 6 0 C6.25 2.3125 6.25 2.3125 6 5 C3.95575462 6.97610386 2.8823175 8 0 8 C0 5.36 0 2.72 0 0 Z " fill="#1C6395" transform="translate(93,24)"/>
<path d="M0 0 C2.97 0 5.94 0 9 0 C8.34 1.65 7.68 3.3 7 5 C4.69 5 2.38 5 0 5 C0 3.35 0 1.7 0 0 Z " fill="#4981AA" transform="translate(33,94)"/>
<path d="M0 0 C0.33 0 0.66 0 1 0 C1 4.29 1 8.58 1 13 C2.32 13 3.64 13 5 13 C5 14.65 5 16.3 5 18 C3.35 18 1.7 18 0 18 C0 12.06 0 6.12 0 0 Z " fill="#3876A2" transform="translate(585,41)"/>
<path d="M0 0 C1.65 0 3.3 0 5 0 C5 2.64 5 5.28 5 8 C3.35 7.67 1.7 7.34 0 7 C0 4.69 0 2.38 0 0 Z " fill="#4982AA" transform="translate(382,516)"/>
<path d="M0 0 C1.65 0 3.3 0 5 0 C5 0.99 5 1.98 5 3 C3.68 3 2.36 3 1 3 C1 7.95 1 12.9 1 18 C2.32 18.33 3.64 18.66 5 19 C3.35 19 1.7 19 0 19 C0 12.73 0 6.46 0 0 Z " fill="#3674A1" transform="translate(284,513)"/>
<path d="M0 0 C2.64 0 5.28 0 8 0 C8.33 1.32 8.66 2.64 9 4 C6.03 4 3.06 4 0 4 C0 2.68 0 1.36 0 0 Z " fill="#4C84AC" transform="translate(36,184)"/>
<path d="M0 0 C3.63 0 7.26 0 11 0 C10.01 0.33 9.02 0.66 8 1 C8.33 1.99 8.66 2.98 9 4 C6.36 4 3.72 4 1 4 C0.67 2.68 0.34 1.36 0 0 Z " fill="#4881AA" transform="translate(63,184)"/>
<path d="M0 0 C1.65 0 3.3 0 5 0 C5 1.65 5 3.3 5 5 C3.35 5 1.7 5 0 5 C0 3.35 0 1.7 0 0 Z " fill="#31709E" transform="translate(93,510)"/>
<path d="M0 0 C1.65 0 3.3 0 5 0 C5 1.65 5 3.3 5 5 C3.35 5 1.7 5 0 5 C0 3.35 0 1.7 0 0 Z " fill="#F3F6F9" transform="translate(484,62)"/>
<path d="M0 0 C1.65 0 3.3 0 5 0 C5.66 1.32 6.32 2.64 7 4 C4.69 4 2.38 4 0 4 C0 2.68 0 1.36 0 0 Z " fill="#3976A2" transform="translate(45,94)"/>
<path d="M0 0 C1.32 0 2.64 0 4 0 C4 1.98 4 3.96 4 6 C2.68 6 1.36 6 0 6 C0 4.02 0 2.04 0 0 Z " fill="#FFFFFF" transform="translate(383,61)"/>
<path d="M0 0 C1.32 0 2.64 0 4 0 C4 1.65 4 3.3 4 5 C2.68 5 1.36 5 0 5 C0 3.35 0 1.7 0 0 Z " fill="#FFFFFF" transform="translate(285,61)"/>
</svg>
